<svg width="32" height="32" viewBox="0 0 32 32" fill="none" xmlns="http://www.w3.org/2000/svg">
  <circle cx="16" cy="16" r="16" fill="url(#gradient0)"/>
  <!-- Mind/brain symbol -->
  <path d="M10 14C10 11.7909 11.7909 10 14 10H18C20.2091 10 22 11.7909 22 14V16C22 18.2091 20.2091 20 18 20H14C11.7909 20 10 18.2091 10 16V14Z" fill="white" fill-opacity="0.9"/>
  <!-- Peaceful waves -->
  <path d="M8 22C8 22 10 21 12 22C14 23 16 21 18 22C20 23 22 21 24 22" stroke="white" stroke-width="1.5" stroke-linecap="round" fill="none" opacity="0.7"/>
  <path d="M9 24C9 24 11 23.5 13 24C15 24.5 17 23.5 19 24C21 24.5 23 23.5 25 24" stroke="white" stroke-width="1" stroke-linecap="round" fill="none" opacity="0.5"/>
  
  <defs>
    <linearGradient id="gradient0" x1="0" y1="0" x2="32" y2="32" gradientUnits="userSpaceOnUse">
      <stop stop-color="#60A5FA"/>
      <stop offset="0.5" stop-color="#3B82F6"/>
      <stop offset="1" stop-color="#1D4ED8"/>
    </linearGradient>
  </defs>
</svg>
